<svg width="103" height="103" viewBox="0 0 103 103" fill="none" xmlns="http://www.w3.org/2000/svg">
<path d="M85.9931 15.6412C86.9415 10.1455 88.3359 6.68505 89.8739 6.67992C92.7499 6.67992 95.0774 18.6812 95.0774 33.4816C95.0774 48.282 92.7448 60.2885 89.8688 60.2885C88.6897 60.2885 87.5977 58.2378 86.7211 54.8338C85.3369 67.3375 82.4609 75.9296 79.1338 75.9296C76.5705 75.9296 74.2481 70.7672 72.6948 62.6313C71.6336 78.1033 68.9678 89.0896 65.8559 89.0896C63.9027 89.0896 62.1135 84.7422 60.796 77.6522C59.2119 92.2783 55.5413 102.531 51.2657 102.531C46.9902 102.531 43.3144 92.2783 41.7303 77.6522C40.423 84.7422 38.6543 89.0896 36.6755 89.0896C33.5534 89.0896 30.8927 78.1084 29.8315 62.6313C28.2935 70.7672 25.9763 75.9296 23.3925 75.9296C20.0654 75.9296 17.1894 67.3375 15.8001 54.8338C14.9337 58.2584 13.8417 60.2885 12.6575 60.2885C9.77637 60.2885 7.44378 48.2923 7.44378 33.4816C7.44378 18.671 9.7815 6.66454 12.6678 6.66454C14.2057 6.66454 15.5899 10.1301 16.5537 15.6258C18.0814 6.15188 20.5781 0 23.3977 0C26.7453 0 29.647 8.71517 31.0209 21.3675C32.364 12.1397 34.3942 6.2903 36.6601 6.2903C39.8591 6.2903 42.5762 17.8353 43.5861 33.9379C45.4932 25.6841 48.241 20.5063 51.2657 20.5063C54.2904 20.5063 57.0485 25.6892 58.9556 33.9379C59.9809 17.8353 62.6826 6.2903 65.8816 6.2903C68.1578 6.2903 70.1879 12.1602 71.5208 21.3675C72.8947 8.71517 75.7964 0 79.1491 0C81.9534 0 84.4551 6.15189 85.9931 15.6412ZM2.94265 42.812C1.32265 42.8325 0 37.4752 0 30.8466C0 24.2179 1.32266 18.8658 2.9529 18.8658C4.58315 18.8658 5.91606 24.2179 5.91606 30.8466C5.91606 37.4752 4.61391 42.8325 2.9529 42.8325L2.94265 42.812ZM99.5683 42.812C97.9278 42.812 96.6102 37.4547 96.6102 30.8261C96.6102 24.1974 97.9278 18.8453 99.5683 18.8453C101.209 18.8453 102.531 24.2179 102.531 30.8466C102.531 37.4752 101.209 42.8325 99.5785 42.8325L99.5683 42.812Z" fill="white"/>
</svg>
