<svg width="201" height="181" viewBox="0 0 201 181" fill="none" xmlns="http://www.w3.org/2000/svg">
<path d="M90.4092 180.818H110.5V170.773H120.546V160.727H130.591V150.682H140.636V140.636H150.682V130.591H160.727V120.545H170.773V110.5H180.818V100.455H190.864V80.3636H200.909V30.1364H190.864V20.0909H180.818V10.0455H170.773V0H120.546V10.0455H110.5V20.0909H90.4092V10.0455H80.3637V0H30.1364V10.0455H20.091V20.0909H10.0455V30.1364H8.01086e-05V80.3636H10.0455V100.455H20.091V110.5H30.1364V120.545H40.1819V130.591H50.2274V140.636H60.2728V150.682H70.3183V160.727H80.3637V170.773H90.4092V180.818ZM160.727 90.4091V100.455H150.682V110.5H140.636V120.545H130.591V130.591H120.546V140.636H110.5V150.682H90.4092V140.636H80.3637V130.591H70.3183V120.545H60.2728V110.5H50.2274V100.455H40.1819V90.4091H30.1364V70.3182H20.091V40.1818H30.1364V30.1364H40.1819V20.0909H70.3183V30.1364H80.3637V40.1818H90.4092V50.2273H110.5V40.1818H120.546V30.1364H130.591V20.0909H160.727V30.1364H170.773V40.1818H180.818V70.3182H170.773V90.4091H160.727Z" fill="#5D0A0B"/>
<path d="M90.4092 180.818H110.5V170.773H120.546V160.727H130.591V150.682H140.636V140.636H150.682V130.591H160.727V120.545H170.773V110.5H180.818V100.455H190.864V80.3636H200.909V30.1364H190.864V20.0909H180.818V10.0455H170.773V0H120.546V10.0455H110.5V20.0909H90.4092V10.0455H80.3637V0H30.1364V10.0455H20.091V20.0909H10.0455V30.1364H8.01086e-05V80.3636H10.0455V100.455H20.091V110.5H30.1364V120.545H40.1819V130.591H50.2274V140.636H60.2728V150.682H70.3183V160.727H80.3637V170.773H90.4092V180.818ZM160.727 90.4091V100.455H150.682V110.5H140.636V120.545H130.591V130.591H120.546V140.636H110.5V150.682H90.4092V140.636H80.3637V130.591H70.3183V120.545H60.2728V110.5H50.2274V100.455H40.1819V90.4091H30.1364V70.3182H20.091V40.1818H30.1364V30.1364H40.1819V20.0909H70.3183V30.1364H80.3637V40.1818H90.4092V50.2273H110.5V40.1818H120.546V30.1364H130.591V20.0909H160.727V30.1364H170.773V40.1818H180.818V70.3182H170.773V90.4091H160.727Z" fill="#7D5613"/>
</svg>
